<?xml version="1.0" encoding="utf-8"?>
<svg id="master-artboard" viewBox="0 0 4000 2000" version="1.1" xmlns="http://www.w3.org/2000/svg" x="0px" y="0px" style="enable-background:new 0 0 1400 980;" width="4000px" height="2000px"><defs><style id="ee-google-fonts">@import url(https://fonts.googleapis.com/css?family=Audiowide:400);</style></defs><rect id="ee-background" x="0" y="0" width="4000" height="2000" style="fill: rgb(1, 1, 1); fill-opacity: 0; pointer-events: none;"/>








































<path d="M 687.1516723632812 411.23004150390625 C 687.1516723632812 411.9233703613281 687.0650024414062 412.5433654785156 686.8916625976562 413.09002685546875 C 686.7183227539062 413.6366882324219 686.4849853515625 414.1200256347656 686.191650390625 414.5400390625 C 685.8983154296875 414.953369140625 685.5616455078125 415.3100280761719 685.181640625 415.6100158691406 C 684.7949829101562 415.9033508300781 684.3949584960938 416.1466979980469 683.9816284179688 416.34002685546875 C 683.5616455078125 416.5267028808594 683.1383056640625 416.6633605957031 682.711669921875 416.7500305175781 C 682.2849731445312 416.83001708984375 681.885009765625 416.8700256347656 681.5116577148438 416.8700256347656 L 674.6216430664062 416.8700256347656 L 674.6216430664062 413.83001708984375 L 681.5116577148438 413.83001708984375 C 681.8983154296875 413.79669189453125 682.2516479492188 413.7167053222656 682.5716552734375 413.59002685546875 C 682.885009765625 413.4566955566406 683.1549682617188 413.2833557128906 683.3816528320312 413.0700378417969 C 683.6083374023438 412.85003662109375 683.7849731445312 412.5867004394531 683.9116821289062 412.280029296875 C 684.038330078125 411.9667053222656 684.1016235351562 411.61669921875 684.1016235351562 411.23004150390625 L 684.1016235351562 409.84002685546875 C 684.0616455078125 409.46002197265625 683.9783325195312 409.1100158691406 683.8516235351562 408.7900390625 C 683.7316284179688 408.47003173828125 683.5616455078125 408.1966857910156 683.3416748046875 407.97003173828125 C 683.1282958984375 407.7433776855469 682.8683471679688 407.56671142578125 682.5616455078125 407.4400329589844 C 682.2616577148438 407.30670166015625 681.9116821289062 407.2400207519531 681.5116577148438 407.2400207519531 L 674.6416625976562 407.2400207519531 C 674.2349853515625 407.2400207519531 673.9283447265625 407.3467102050781 673.7216796875 407.5600280761719 C 673.50830078125 407.7666931152344 673.4016723632812 408.0700378417969 673.4016723632812 408.47003173828125 L 673.4016723632812 421.0000305175781 L 670.3516235351562 421.0000305175781 L 670.3516235351562 408.47003173828125 C 670.3516235351562 407.6900329589844 670.4949951171875 407.0267028808594 670.7816772460938 406.48004150390625 C 671.0682983398438 405.933349609375 671.4249877929688 405.4933776855469 671.8516235351562 405.1600341796875 C 672.2783203125 404.8200378417969 672.7416381835938 404.5733642578125 673.2416381835938 404.4200439453125 C 673.7416381835938 404.27337646484375 674.20166015625 404.2000427246094 674.6216430664062 404.2000427246094 L 681.5116577148438 404.2000427246094 C 682.1983032226562 404.2000427246094 682.8150024414062 404.28668212890625 683.3616333007812 404.46002197265625 C 683.9083251953125 404.63336181640625 684.3916625976562 404.86669921875 684.8116455078125 405.1600341796875 C 685.2249755859375 405.453369140625 685.5783081054688 405.7933654785156 685.8716430664062 406.1800231933594 C 686.1649780273438 406.5600280761719 686.4083251953125 406.96002197265625 686.6016235351562 407.3800354003906 C 686.7949829101562 407.7933654785156 686.9349975585938 408.21337890625 687.0216674804688 408.6400451660156 C 687.1083374023438 409.06671142578125 687.1516723632812 409.4667053222656 687.1516723632812 409.84002685546875 L 687.1516723632812 411.23004150390625 ZM 704.798095703125 421.0000305175781 L 693.798095703125 421.0000305175781 C 693.51806640625 421.0000305175781 693.2180786132812 420.9667053222656 692.8980712890625 420.9000244140625 C 692.5714111328125 420.8333740234375 692.2514038085938 420.73004150390625 691.9381103515625 420.59002685546875 C 691.6181030273438 420.4500427246094 691.3147583007812 420.2666931152344 691.028076171875 420.0400390625 C 690.7347412109375 419.8200378417969 690.4780883789062 419.5533752441406 690.2581176757812 419.2400207519531 C 690.0380859375 418.9200439453125 689.8614501953125 418.5500183105469 689.7280883789062 418.1300354003906 C 689.5947265625 417.7167053222656 689.528076171875 417.2467041015625 689.528076171875 416.72003173828125 L 689.528076171875 408.47003173828125 C 689.528076171875 408.1900329589844 689.5614013671875 407.8866882324219 689.6281127929688 407.5600280761719 C 689.6947631835938 407.2400207519531 689.798095703125 406.9200439453125 689.9381103515625 406.60003662109375 C 690.0780639648438 406.28668212890625 690.2614135742188 405.9866943359375 690.4880981445312 405.7000427246094 C 690.7147827148438 405.4067077636719 690.9847412109375 405.1500244140625 691.298095703125 404.9300231933594 C 691.6181030273438 404.703369140625 691.9847412109375 404.52337646484375 692.3980712890625 404.3900146484375 C 692.8114013671875 404.26336669921875 693.278076171875 404.2000427246094 693.798095703125 404.2000427246094 L 704.798095703125 404.2000427246094 L 704.798095703125 407.2400207519531 L 693.798095703125 407.2400207519531 C 693.40478515625 407.2400207519531 693.1014404296875 407.3467102050781 692.8880615234375 407.5600280761719 C 692.6747436523438 407.7666931152344 692.568115234375 408.08001708984375 692.568115234375 408.5000305175781 L 692.568115234375 416.72003173828125 C 692.568115234375 417.1133728027344 692.6781005859375 417.41668701171875 692.8980712890625 417.6300354003906 C 693.1114501953125 417.8433532714844 693.4114379882812 417.9500427246094 693.798095703125 417.9500427246094 L 704.798095703125 417.9500427246094 L 704.798095703125 421.0000305175781 Z" transform="matrix(44.194156646728516, 0, 0, 44.194156646728516, -27424.01953125, -17709.134765625)" style="fill: rgb(250, 255, 245); white-space: pre; color: rgb(250, 255, 245); fill-opacity: 1; stroke: rgb(0, 255, 251); stroke-width: 1; stroke-opacity: 1;"/><g transform="matrix(14.890656894075045, 0, 0, 14.890656894075045, -6604.957752386764, -15754.560650412517)"><g id="Layer_2_23_" transform="matrix(1, 0, 0, 1, 0, 0)">
	<g transform="matrix(1.5065349340438843, 0, 0, 1.5065349340438843, -244.2848771282246, -561.9799650382851)">
		<path class="st0" d="M539,1162h-70c-5.1,0-9-1.9-11-5.3c-2-3.4-1.7-7.8,0.8-12.2L494,1083c2.5-4.4,6.1-6.9,10-6.9s7.5,2.4,10,6.9&#10;&#9;&#9;&#9;l35.1,61.5c2.5,4.4,2.8,8.8,0.8,12.2C548,1160.1,544.1,1162,539,1162z M504,1082.1c-1.7,0-3.4,1.4-4.8,3.9l-35.1,61.5&#10;&#9;&#9;&#9;c-1.4,2.5-1.7,4.7-0.9,6.2c0.9,1.5,3,2.3,5.8,2.3h70c2.8,0,5-0.8,5.8-2.3c0.9-1.5,0.5-3.7-0.9-6.2l-35.1-61.5&#10;&#9;&#9;&#9;C507.4,1083.5,505.7,1082.1,504,1082.1z" style="fill: rgb(232, 255, 248); stroke: rgb(41, 255, 230);"/>
	</g>
</g></g></svg>