<svg xmlns="http://www.w3.org/2000/svg" viewBox="79.85000610351557 50.00340270996094 415.29998779296875 474.993177078783"> <g transform="rotate(0 287.49999999999994 261.3177185983737)"><svg xmlns="http://www.w3.org/2000/svg" xmlns:xlink="http://www.w3.org/1999/xlink" version="1.1" id="Layer_1" x="149.85096877759713" y="120.00340270996094" viewBox="188.29998779296875 180 623.4000244140625 640" enable-background="new 0 0 1000 1000" xml:space="preserve" height="282.6286317768255" width="275.2980624448056" preserveAspectRatio="xMinYMin" style="overflow: visible;"><path fill="#1D1C4C" d="M503.2,481.6L504,820c169.9,0,307.7-137.7,307.7-307.7v-30.8H503.2z" style="fill: #00c8e3; fill-opacity: 1;"></path><path fill="#1D1C4C" d="M558.8,207.8c0-15.3-12.4-27.8-27.8-27.8c-15.3,0-27.8,12.4-27.8,27.8v267h55.6V207.8z" style="fill: #00c8e3; fill-opacity: 1;"></path><path fill="#1D1C4C" d="M622.6,222.7c0-15.3-12.4-27.8-27.8-27.8c-15.3,0-27.8,12.4-27.8,27.8v252.1h55.6V222.7z" style="fill: #00c8e3; fill-opacity: 1;"></path><path fill="#1D1C4C" d="M685.6,254.1c0-15.3-12.4-27.8-27.8-27.8c-15.3,0-27.8,12.4-27.8,27.8v220.7h55.6V254.1z" style="fill: #00c8e3; fill-opacity: 1;"></path><path fill="#1D1C4C" d="M748.6,310.8c0-15.3-12.4-27.8-27.8-27.8s-27.8,12.4-27.8,27.8v163.9h55.6V310.8z" style="fill: #00c8e3; fill-opacity: 1;"></path><path fill="#1D1C4C" d="M811.7,423.1c0-15.3-12.4-27.8-27.8-27.8s-27.8,12.4-27.8,27.8v51.7h55.6V423.1z" style="fill: #00c8e3; fill-opacity: 1;"></path><path fill="#E92A35" d="M496.8,481.6L496,820c-169.9,0-307.7-137.7-307.7-307.7v-30.8H496.8z" style="fill: #028aa6; fill-opacity: 1;"></path><path fill="#E92A35" d="M441.2,207.8c0-15.3,12.4-27.8,27.8-27.8c15.3,0,27.8,12.4,27.8,27.8v267h-55.6V207.8z" style="fill: #028aa6; fill-opacity: 1;"></path><path fill="#E92A35" d="M377.4,222.7c0-15.3,12.4-27.8,27.8-27.8c15.3,0,27.8,12.4,27.8,27.8v252.1h-55.6V222.7z" style="fill: #028aa6; fill-opacity: 1;"></path><path fill="#E92A35" d="M314.4,254.1c0-15.3,12.4-27.8,27.8-27.8c15.3,0,27.8,12.4,27.8,27.8v220.7h-55.6V254.1z" style="fill: #028aa6; fill-opacity: 1;"></path><path fill="#E92A35" d="M251.4,310.8c0-15.3,12.4-27.8,27.8-27.8c15.3,0,27.8,12.4,27.8,27.8v163.9h-55.6V310.8z" style="fill: #028aa6; fill-opacity: 1;"></path><path fill="#E92A35" d="M188.3,423.1c0-15.3,12.4-27.8,27.8-27.8s27.8,12.4,27.8,27.8v51.7h-55.6V423.1z" style="fill: #028aa6; fill-opacity: 1;"></path></svg></g> <g transform="rotate(0 287.49999999999994 444.0415798650379)"><svg y="433.0865799413318" viewBox="1.7000000476837158 8.859999656677246 275.29998779296875 21.90999984741211" x="149.85000610351557" height="21.90999984741211" width="275.29998779296875" style="overflow: visible;"><g fill="#ffffff" fill-opacity="1" style=""><path d="M4.17 30.77L1.70 30.77L1.70 8.89L19.97 8.89Q20.97 8.89 21.81 9.39Q22.65 9.89 23.13 10.71Q23.62 11.54 23.62 12.54L23.62 12.54L23.62 18.96Q23.62 19.97 23.13 20.79Q22.65 21.61 21.81 22.11Q20.97 22.62 19.97 22.62L19.97 22.62L4.17 22.62L4.17 30.77ZM5.36 20.12L5.36 20.12L19.97 20.12Q20.46 20.12 20.81 19.79Q21.16 19.45 21.16 18.96L21.16 18.96L21.16 12.54Q21.16 12.05 20.81 11.70Q20.46 11.35 19.97 11.35L19.97 11.35L5.36 11.35Q4.87 11.35 4.52 11.70Q4.17 12.05 4.17 12.54L4.17 12.54L4.17 18.96Q4.17 19.45 4.52 19.79Q4.87 20.12 5.36 20.12ZM45.84 30.77L25.84 30.77L25.84 8.86L45.84 8.86L45.84 11.32L28.31 11.32L28.31 18.57L42.40 18.57L42.40 21.06L28.31 21.06L28.31 28.31L45.84 28.31L45.84 30.77ZM51.57 30.77L49.10 30.77L49.10 8.86L52.48 8.86L68.55 27.97L68.55 8.86L71.02 8.86L71.02 30.77L67.64 30.77L51.57 11.66L51.57 30.77ZM96.19 30.77L92.93 30.77L85.78 22.25L89.01 22.25L96.19 30.74L96.19 30.77ZM76.89 30.77L74.43 30.77L74.43 8.89L92.69 8.89Q93.69 8.89 94.53 9.39Q95.37 9.89 95.86 10.71Q96.34 11.54 96.34 12.54L96.34 12.54L96.34 18.96Q96.34 19.97 95.86 20.79Q95.37 21.61 94.53 22.11Q93.69 22.62 92.69 22.62L92.69 22.62L76.89 22.62L76.89 30.77ZM78.08 20.12L78.08 20.12L92.69 20.12Q93.18 20.12 93.53 19.79Q93.88 19.45 93.88 18.96L93.88 18.96L93.88 12.54Q93.88 12.05 93.53 11.70Q93.18 11.35 92.69 11.35L92.69 11.35L78.08 11.35Q77.59 11.35 77.24 11.70Q76.89 12.05 76.89 12.54L76.89 12.54L76.89 18.96Q76.89 19.45 77.24 19.79Q77.59 20.12 78.08 20.12ZM117.74 30.77L103.13 30.77Q102.13 30.77 101.29 30.29Q100.45 29.80 99.97 28.96Q99.48 28.13 99.48 27.12L99.48 27.12L99.48 12.51Q99.48 11.51 99.97 10.67Q100.45 9.83 101.29 9.35Q102.13 8.86 103.13 8.86L103.13 8.86L117.74 8.86Q118.75 8.86 119.58 9.35Q120.42 9.83 120.91 10.67Q121.39 11.51 121.39 12.51L121.39 12.51L121.39 27.12Q121.39 28.13 120.91 28.96Q120.42 29.80 119.58 30.29Q118.75 30.77 117.74 30.77L117.74 30.77ZM103.13 28.31L103.13 28.31L117.74 28.31Q118.23 28.31 118.58 27.96Q118.93 27.61 118.93 27.12L118.93 27.12L118.93 12.51Q118.93 12.02 118.58 11.67Q118.23 11.32 117.74 11.32L117.74 11.32L103.13 11.32Q102.64 11.32 102.29 11.67Q101.94 12.02 101.94 12.51L101.94 12.51L101.94 27.12Q101.94 27.61 102.29 27.96Q102.64 28.31 103.13 28.31ZM142.86 30.77L128.24 30.77Q127.24 30.77 126.40 30.29Q125.57 29.80 125.08 28.96Q124.59 28.13 124.59 27.12L124.59 27.12L124.59 26.27L127.06 26.27L127.06 27.12Q127.06 27.61 127.41 27.96Q127.76 28.31 128.24 28.31L128.24 28.31L142.86 28.31Q143.34 28.31 143.69 27.96Q144.04 27.61 144.04 27.12L144.04 27.12L144.04 22.22Q144.04 21.73 143.69 21.40Q143.34 21.06 142.86 21.06L142.86 21.06L128.24 21.06Q127.24 21.06 126.40 20.56Q125.57 20.06 125.08 19.24Q124.59 18.42 124.59 17.41L124.59 17.41L124.59 12.51Q124.59 11.51 125.08 10.67Q125.57 9.83 126.40 9.35Q127.24 8.86 128.24 8.86L128.24 8.86L142.86 8.86Q143.86 8.86 144.70 9.35Q145.53 9.83 146.02 10.67Q146.51 11.51 146.51 12.51L146.51 12.51L146.51 13.36L144.04 13.36L144.04 12.51Q144.04 12.02 143.69 11.67Q143.34 11.32 142.86 11.32L142.86 11.32L128.24 11.32Q127.76 11.32 127.41 11.67Q127.06 12.02 127.06 12.51L127.06 12.51L127.06 17.41Q127.06 17.90 127.41 18.23Q127.76 18.57 128.24 18.57L128.24 18.57L142.86 18.57Q143.86 18.57 144.70 19.07Q145.53 19.57 146.02 20.39Q146.51 21.22 146.51 22.22L146.51 22.22L146.51 27.12Q146.51 28.13 146.02 28.96Q145.53 29.80 144.70 30.29Q143.86 30.77 142.86 30.77L142.86 30.77ZM169.82 30.77L149.83 30.77L149.83 8.86L169.82 8.86L169.82 11.32L152.29 11.32L152.29 18.57L166.39 18.57L166.39 21.06L152.29 21.06L152.29 28.31L169.82 28.31L169.82 30.77ZM203.22 30.77L185.01 30.77Q184.01 30.77 183.17 30.29Q182.34 29.80 181.85 28.96Q181.36 28.13 181.36 27.12L181.36 27.12L181.36 12.51Q181.36 11.51 181.85 10.67Q182.34 9.83 183.17 9.35Q184.01 8.86 185.01 8.86L185.01 8.86L203.22 8.86L203.22 11.32L185.01 11.32Q184.53 11.32 184.18 11.67Q183.83 12.02 183.83 12.51L183.83 12.51L183.83 27.12Q183.83 27.61 184.18 27.96Q184.53 28.31 185.01 28.31L185.01 28.31L203.22 28.31L203.22 30.77ZM206.44 30.77L206.44 30.77L206.44 12.51Q206.44 11.51 206.93 10.67Q207.42 9.83 208.26 9.35Q209.09 8.86 210.10 8.86L210.10 8.86L224.71 8.86Q225.71 8.86 226.55 9.35Q227.39 9.83 227.87 10.67Q228.36 11.51 228.36 12.51L228.36 12.51L228.36 30.77L225.90 30.77L225.90 22.77L208.91 22.77L208.91 30.77L206.44 30.77ZM208.91 20.30L208.91 20.30L225.90 20.30L225.90 12.51Q225.90 12.02 225.55 11.67Q225.20 11.32 224.71 11.32L224.71 11.32L210.10 11.32Q209.61 11.32 209.26 11.67Q208.91 12.02 208.91 12.51L208.91 12.51L208.91 20.30ZM253.60 30.77L250.34 30.77L243.19 22.25L246.41 22.25L253.60 30.74L253.60 30.77ZM234.30 30.77L231.83 30.77L231.83 8.89L250.10 8.89Q251.10 8.89 251.94 9.39Q252.77 9.89 253.26 10.71Q253.75 11.54 253.75 12.54L253.75 12.54L253.75 18.96Q253.75 19.97 253.26 20.79Q252.77 21.61 251.94 22.11Q251.10 22.62 250.10 22.62L250.10 22.62L234.30 22.62L234.30 30.77ZM235.48 20.12L235.48 20.12L250.10 20.12Q250.58 20.12 250.93 19.79Q251.28 19.45 251.28 18.96L251.28 18.96L251.28 12.54Q251.28 12.05 250.93 11.70Q250.58 11.35 250.10 11.35L250.10 11.35L235.48 11.35Q235.00 11.35 234.65 11.70Q234.30 12.05 234.30 12.54L234.30 12.54L234.30 18.96Q234.30 19.45 234.65 19.79Q235.00 20.12 235.48 20.12ZM277.00 30.77L257.01 30.77L257.01 8.86L277.00 8.86L277.00 11.32L259.47 11.32L259.47 18.57L273.56 18.57L273.56 21.06L259.47 21.06L259.47 28.31L277.00 28.31L277.00 30.77Z" transform="translate(0, 0)"></path></g></svg></g></svg>